<svg width="1011" height="1648" viewBox="0 0 1011 1648" fill="none" xmlns="http://www.w3.org/2000/svg">
<path d="M403.687 314.608C342.94 314.608 293.661 364.062 293.661 425.024V1338.84C293.661 1357.5 308.692 1372.58 327.288 1372.58C388.035 1372.58 437.314 1323.13 437.314 1262.17V348.511C437.314 329.849 422.283 314.608 403.687 314.608Z" fill="#00B3FF"/>
<path d="M110.026 590.026C49.2793 590.026 0 639.48 0 700.442V1614.25C0 1632.91 15.0317 1648 33.6277 1648C94.3745 1648 143.654 1598.55 143.654 1537.58V623.928C143.809 605.266 128.622 590.026 110.026 590.026Z" fill="#68CEFF"/>
<path d="M980.007 299.057H961.101C909.342 299.057 867.191 341.201 867.191 393.299V1369.94C867.191 1380.2 875.404 1388.44 885.632 1388.44H917.09C968.849 1388.44 1011 1346.3 1011 1294.2V330.16C1011 313.053 997.053 299.057 980.007 299.057Z" fill="#8D11F9"/>
<path d="M699.83 0C639.393 0 590.268 49.2985 590.268 109.95V1055.02C590.268 1073.99 605.61 1089.23 624.361 1089.23C684.798 1089.23 733.922 1039.93 733.922 979.283V34.2135C734.077 15.3961 718.735 0 699.83 0Z" fill="#2674FF"/>
</svg>